<mxfile host="app.diagrams.net" agent="Mozilla/5.0 (Windows NT 10.0; Win64; x64) AppleWebKit/537.36 (KHTML, like Gecko) Chrome/139.0.0.0 Safari/537.36" version="26.1.0">
  <diagram name="Page-1" id="822b0af5-4adb-64df-f703-e8dfc1f81529">
    <mxGraphModel grid="1" page="1" gridSize="10" guides="1" tooltips="1" connect="1" arrows="1" fold="1" pageScale="1" pageWidth="1100" pageHeight="850" background="none" math="0" shadow="0">
      <root>
        <mxCell id="0" />
        <mxCell id="1" parent="0" />
        <mxCell id="87R97mBjq8Byll4jBRf2-55" value="" style="rounded=1;whiteSpace=wrap;html=1;fillColor=none;arcSize=4;" vertex="1" parent="1">
          <mxGeometry x="420" y="-20" width="660" height="540" as="geometry" />
        </mxCell>
        <mxCell id="87R97mBjq8Byll4jBRf2-33" value="" style="group;fillColor=#f5f5f5;fontColor=#333333;strokeColor=#666666;opacity=30;" connectable="0" vertex="1" parent="1">
          <mxGeometry x="560" y="5" width="500" height="500" as="geometry" />
        </mxCell>
        <mxCell id="87R97mBjq8Byll4jBRf2-24" value="" style="rounded=0;whiteSpace=wrap;html=1;fillColor=none;" vertex="1" parent="87R97mBjq8Byll4jBRf2-33">
          <mxGeometry width="500.00000000000006" height="500" as="geometry" />
        </mxCell>
        <mxCell id="QBx2wNELxHZX-28tedOM-4" value="" style="image;sketch=0;aspect=fixed;html=1;points=[];align=center;fontSize=12;image=img/lib/mscae/Docker.svg;" vertex="1" parent="87R97mBjq8Byll4jBRf2-33">
          <mxGeometry x="38.98325581395346" y="370.00448979591835" width="73.17" height="60" as="geometry" />
        </mxCell>
        <mxCell id="87R97mBjq8Byll4jBRf2-25" value="&lt;b&gt;Ubuntu VM&lt;/b&gt;&lt;div&gt;&lt;b&gt;192.168.178.164&lt;/b&gt;&lt;/div&gt;" style="text;html=1;align=center;verticalAlign=middle;whiteSpace=wrap;rounded=0;" vertex="1" parent="87R97mBjq8Byll4jBRf2-33">
          <mxGeometry x="11.616279069767444" y="430.0001360544218" width="127.90697674418605" height="62.58503401360544" as="geometry" />
        </mxCell>
        <mxCell id="87R97mBjq8Byll4jBRf2-26" value="" style="group" connectable="0" vertex="1" parent="87R97mBjq8Byll4jBRf2-33">
          <mxGeometry x="280" y="20.41" width="204.19" height="81.63" as="geometry" />
        </mxCell>
        <mxCell id="87R97mBjq8Byll4jBRf2-13" value="" style="shape=cube;whiteSpace=wrap;html=1;boundedLbl=1;backgroundOutline=1;darkOpacity=0.05;darkOpacity2=0.1;" vertex="1" parent="87R97mBjq8Byll4jBRf2-26">
          <mxGeometry width="193.9805" height="81.63" as="geometry" />
        </mxCell>
        <mxCell id="87R97mBjq8Byll4jBRf2-14" value="" style="shape=image;html=1;verticalAlign=top;verticalLabelPosition=bottom;labelBackgroundColor=#ffffff;imageAspect=0;aspect=fixed;image=https://cdn2.iconfinder.com/data/icons/boxicons-logos/24/bxl-docker-128.png" vertex="1" parent="87R97mBjq8Byll4jBRf2-26">
          <mxGeometry x="30.628499999999995" y="20.4075" width="52.68101999999999" height="52.68101999999999" as="geometry" />
        </mxCell>
        <mxCell id="87R97mBjq8Byll4jBRf2-15" value="portainer" style="text;html=1;align=center;verticalAlign=middle;whiteSpace=wrap;rounded=0;" vertex="1" parent="87R97mBjq8Byll4jBRf2-26">
          <mxGeometry x="91.8855" y="20.4075" width="112.30449999999998" height="61.2225" as="geometry" />
        </mxCell>
        <mxCell id="87R97mBjq8Byll4jBRf2-105" value="" style="ellipse;whiteSpace=wrap;html=1;aspect=fixed;fillColor=#d5e8d4;strokeColor=#82b366;" vertex="1" parent="87R97mBjq8Byll4jBRf2-26">
          <mxGeometry x="91.88999999999999" y="38.519999999999996" width="25" height="25" as="geometry" />
        </mxCell>
        <mxCell id="87R97mBjq8Byll4jBRf2-28" value="" style="group" connectable="0" vertex="1" parent="87R97mBjq8Byll4jBRf2-33">
          <mxGeometry x="280" y="112.24" width="208.37" height="81.63" as="geometry" />
        </mxCell>
        <mxCell id="87R97mBjq8Byll4jBRf2-29" value="" style="shape=cube;whiteSpace=wrap;html=1;boundedLbl=1;backgroundOutline=1;darkOpacity=0.05;darkOpacity2=0.1;" vertex="1" parent="87R97mBjq8Byll4jBRf2-28">
          <mxGeometry width="197.9515" height="81.63" as="geometry" />
        </mxCell>
        <mxCell id="87R97mBjq8Byll4jBRf2-30" value="" style="shape=image;html=1;verticalAlign=top;verticalLabelPosition=bottom;labelBackgroundColor=#ffffff;imageAspect=0;aspect=fixed;image=https://cdn2.iconfinder.com/data/icons/boxicons-logos/24/bxl-docker-128.png" vertex="1" parent="87R97mBjq8Byll4jBRf2-28">
          <mxGeometry x="31.2555" y="20.4075" width="53.75945999999999" height="53.75945999999999" as="geometry" />
        </mxCell>
        <mxCell id="87R97mBjq8Byll4jBRf2-31" value="jenkins" style="text;html=1;align=center;verticalAlign=middle;whiteSpace=wrap;rounded=0;" vertex="1" parent="87R97mBjq8Byll4jBRf2-28">
          <mxGeometry x="93.76650000000001" y="20.4075" width="114.60349999999998" height="61.2225" as="geometry" />
        </mxCell>
        <mxCell id="87R97mBjq8Byll4jBRf2-106" value="" style="ellipse;whiteSpace=wrap;html=1;aspect=fixed;fillColor=#d5e8d4;strokeColor=#82b366;" vertex="1" parent="87R97mBjq8Byll4jBRf2-28">
          <mxGeometry x="91.67999999999995" y="38.519999999999996" width="25" height="25" as="geometry" />
        </mxCell>
        <mxCell id="87R97mBjq8Byll4jBRf2-34" value="" style="group" connectable="0" vertex="1" parent="87R97mBjq8Byll4jBRf2-33">
          <mxGeometry x="280" y="204.08" width="208.37" height="81.63" as="geometry" />
        </mxCell>
        <mxCell id="87R97mBjq8Byll4jBRf2-35" value="" style="shape=cube;whiteSpace=wrap;html=1;boundedLbl=1;backgroundOutline=1;darkOpacity=0.05;darkOpacity2=0.1;" vertex="1" parent="87R97mBjq8Byll4jBRf2-34">
          <mxGeometry width="197.9515" height="81.63" as="geometry" />
        </mxCell>
        <mxCell id="87R97mBjq8Byll4jBRf2-36" value="" style="shape=image;html=1;verticalAlign=top;verticalLabelPosition=bottom;labelBackgroundColor=#ffffff;imageAspect=0;aspect=fixed;image=https://cdn2.iconfinder.com/data/icons/boxicons-logos/24/bxl-docker-128.png" vertex="1" parent="87R97mBjq8Byll4jBRf2-34">
          <mxGeometry x="31.2555" y="20.4075" width="53.75945999999999" height="53.75945999999999" as="geometry" />
        </mxCell>
        <mxCell id="87R97mBjq8Byll4jBRf2-37" value="&lt;div&gt;DrinkManager&lt;/div&gt;backend" style="text;html=1;align=center;verticalAlign=middle;whiteSpace=wrap;rounded=0;" vertex="1" parent="87R97mBjq8Byll4jBRf2-34">
          <mxGeometry x="93.76650000000001" y="20.4075" width="114.60349999999998" height="61.2225" as="geometry" />
        </mxCell>
        <mxCell id="87R97mBjq8Byll4jBRf2-107" value="" style="ellipse;whiteSpace=wrap;html=1;aspect=fixed;fillColor=#d5e8d4;strokeColor=#82b366;" vertex="1" parent="87R97mBjq8Byll4jBRf2-34">
          <mxGeometry x="85.00999999999999" y="38.51999999999995" width="25" height="25" as="geometry" />
        </mxCell>
        <mxCell id="87R97mBjq8Byll4jBRf2-38" value="" style="group" connectable="0" vertex="1" parent="87R97mBjq8Byll4jBRf2-33">
          <mxGeometry x="280" y="295.92" width="208.37" height="81.63" as="geometry" />
        </mxCell>
        <mxCell id="87R97mBjq8Byll4jBRf2-39" value="" style="shape=cube;whiteSpace=wrap;html=1;boundedLbl=1;backgroundOutline=1;darkOpacity=0.05;darkOpacity2=0.1;" vertex="1" parent="87R97mBjq8Byll4jBRf2-38">
          <mxGeometry width="197.9515" height="81.63" as="geometry" />
        </mxCell>
        <mxCell id="87R97mBjq8Byll4jBRf2-40" value="" style="shape=image;html=1;verticalAlign=top;verticalLabelPosition=bottom;labelBackgroundColor=#ffffff;imageAspect=0;aspect=fixed;image=https://cdn2.iconfinder.com/data/icons/boxicons-logos/24/bxl-docker-128.png" vertex="1" parent="87R97mBjq8Byll4jBRf2-38">
          <mxGeometry x="31.255499999999998" y="20.4075" width="53.75945999999999" height="53.75945999999999" as="geometry" />
        </mxCell>
        <mxCell id="87R97mBjq8Byll4jBRf2-41" value="&lt;div&gt;DrinkManager&lt;/div&gt;frontend" style="text;html=1;align=center;verticalAlign=middle;whiteSpace=wrap;rounded=0;" vertex="1" parent="87R97mBjq8Byll4jBRf2-38">
          <mxGeometry x="93.76650000000001" y="20.4075" width="114.60349999999998" height="61.2225" as="geometry" />
        </mxCell>
        <mxCell id="87R97mBjq8Byll4jBRf2-108" value="" style="ellipse;whiteSpace=wrap;html=1;aspect=fixed;fillColor=#d5e8d4;strokeColor=#82b366;" vertex="1" parent="87R97mBjq8Byll4jBRf2-38">
          <mxGeometry x="85.00999999999999" y="38.51999999999998" width="25" height="25" as="geometry" />
        </mxCell>
        <mxCell id="87R97mBjq8Byll4jBRf2-42" value="" style="group" connectable="0" vertex="1" parent="87R97mBjq8Byll4jBRf2-33">
          <mxGeometry x="280" y="387.76" width="208.37" height="81.63" as="geometry" />
        </mxCell>
        <mxCell id="87R97mBjq8Byll4jBRf2-43" value="" style="shape=cube;whiteSpace=wrap;html=1;boundedLbl=1;backgroundOutline=1;darkOpacity=0.05;darkOpacity2=0.1;" vertex="1" parent="87R97mBjq8Byll4jBRf2-42">
          <mxGeometry width="197.9515" height="81.63" as="geometry" />
        </mxCell>
        <mxCell id="87R97mBjq8Byll4jBRf2-44" value="" style="shape=image;html=1;verticalAlign=top;verticalLabelPosition=bottom;labelBackgroundColor=#ffffff;imageAspect=0;aspect=fixed;image=https://cdn2.iconfinder.com/data/icons/boxicons-logos/24/bxl-docker-128.png" vertex="1" parent="87R97mBjq8Byll4jBRf2-42">
          <mxGeometry x="31.2555" y="20.4075" width="53.75945999999999" height="53.75945999999999" as="geometry" />
        </mxCell>
        <mxCell id="87R97mBjq8Byll4jBRf2-45" value="&lt;div&gt;DrinkManager&lt;/div&gt;DB" style="text;html=1;align=center;verticalAlign=middle;whiteSpace=wrap;rounded=0;" vertex="1" parent="87R97mBjq8Byll4jBRf2-42">
          <mxGeometry x="93.76650000000001" y="20.4075" width="114.60349999999998" height="61.2225" as="geometry" />
        </mxCell>
        <mxCell id="87R97mBjq8Byll4jBRf2-109" value="" style="ellipse;whiteSpace=wrap;html=1;aspect=fixed;fillColor=#fff2cc;strokeColor=#d6b656;" vertex="1" parent="87R97mBjq8Byll4jBRf2-42">
          <mxGeometry x="86.48000000000002" y="38.52000000000004" width="25" height="25" as="geometry" />
        </mxCell>
        <mxCell id="87R97mBjq8Byll4jBRf2-46" value="" style="group" connectable="0" vertex="1" parent="87R97mBjq8Byll4jBRf2-33">
          <mxGeometry x="34.09" y="20" width="205.91" height="81.63" as="geometry" />
        </mxCell>
        <mxCell id="87R97mBjq8Byll4jBRf2-47" value="" style="shape=cube;whiteSpace=wrap;html=1;boundedLbl=1;backgroundOutline=1;darkOpacity=0.05;darkOpacity2=0.1;" vertex="1" parent="87R97mBjq8Byll4jBRf2-46">
          <mxGeometry width="195.6145" height="81.63" as="geometry" />
        </mxCell>
        <mxCell id="87R97mBjq8Byll4jBRf2-48" value="" style="shape=image;html=1;verticalAlign=top;verticalLabelPosition=bottom;labelBackgroundColor=#ffffff;imageAspect=0;aspect=fixed;image=https://cdn2.iconfinder.com/data/icons/boxicons-logos/24/bxl-docker-128.png" vertex="1" parent="87R97mBjq8Byll4jBRf2-46">
          <mxGeometry x="30.886499999999998" y="20.4075" width="53.12477999999999" height="53.12477999999999" as="geometry" />
        </mxCell>
        <mxCell id="87R97mBjq8Byll4jBRf2-49" value="cloudflared" style="text;html=1;align=center;verticalAlign=middle;whiteSpace=wrap;rounded=0;" vertex="1" parent="87R97mBjq8Byll4jBRf2-46">
          <mxGeometry x="92.6595" y="20.4075" width="113.25049999999997" height="61.2225" as="geometry" />
        </mxCell>
        <mxCell id="87R97mBjq8Byll4jBRf2-104" value="" style="ellipse;whiteSpace=wrap;html=1;aspect=fixed;fillColor=#d5e8d4;strokeColor=#82b366;" vertex="1" parent="87R97mBjq8Byll4jBRf2-46">
          <mxGeometry x="90.44999999999993" y="38.519999999999996" width="25" height="25" as="geometry" />
        </mxCell>
        <mxCell id="87R97mBjq8Byll4jBRf2-57" style="edgeStyle=orthogonalEdgeStyle;rounded=0;orthogonalLoop=1;jettySize=auto;html=1;" edge="1" parent="87R97mBjq8Byll4jBRf2-33" source="87R97mBjq8Byll4jBRf2-13" target="87R97mBjq8Byll4jBRf2-47">
          <mxGeometry relative="1" as="geometry" />
        </mxCell>
        <mxCell id="87R97mBjq8Byll4jBRf2-58" style="edgeStyle=orthogonalEdgeStyle;rounded=0;orthogonalLoop=1;jettySize=auto;html=1;entryX=0.5;entryY=1;entryDx=0;entryDy=0;" edge="1" parent="87R97mBjq8Byll4jBRf2-33" source="87R97mBjq8Byll4jBRf2-29" target="87R97mBjq8Byll4jBRf2-49">
          <mxGeometry relative="1" as="geometry" />
        </mxCell>
        <mxCell id="87R97mBjq8Byll4jBRf2-59" style="edgeStyle=orthogonalEdgeStyle;rounded=0;orthogonalLoop=1;jettySize=auto;html=1;entryX=0.5;entryY=1;entryDx=0;entryDy=0;" edge="1" parent="87R97mBjq8Byll4jBRf2-33" source="87R97mBjq8Byll4jBRf2-35" target="87R97mBjq8Byll4jBRf2-49">
          <mxGeometry relative="1" as="geometry" />
        </mxCell>
        <mxCell id="87R97mBjq8Byll4jBRf2-60" style="edgeStyle=orthogonalEdgeStyle;rounded=0;orthogonalLoop=1;jettySize=auto;html=1;entryX=0.5;entryY=1;entryDx=0;entryDy=0;" edge="1" parent="87R97mBjq8Byll4jBRf2-33" source="87R97mBjq8Byll4jBRf2-39" target="87R97mBjq8Byll4jBRf2-49">
          <mxGeometry relative="1" as="geometry" />
        </mxCell>
        <mxCell id="87R97mBjq8Byll4jBRf2-61" style="edgeStyle=orthogonalEdgeStyle;rounded=0;orthogonalLoop=1;jettySize=auto;html=1;entryX=0.5;entryY=1;entryDx=0;entryDy=0;dashed=1;" edge="1" parent="87R97mBjq8Byll4jBRf2-33" source="87R97mBjq8Byll4jBRf2-43" target="87R97mBjq8Byll4jBRf2-49">
          <mxGeometry relative="1" as="geometry" />
        </mxCell>
        <mxCell id="87R97mBjq8Byll4jBRf2-63" value="" style="ellipse;whiteSpace=wrap;html=1;aspect=fixed;fillColor=#d5e8d4;strokeColor=#82b366;" vertex="1" parent="87R97mBjq8Byll4jBRf2-33">
          <mxGeometry x="13.979999999999999" y="145" width="25" height="25" as="geometry" />
        </mxCell>
        <mxCell id="87R97mBjq8Byll4jBRf2-64" value="" style="ellipse;whiteSpace=wrap;html=1;aspect=fixed;fillColor=#f8cecc;strokeColor=#b85450;" vertex="1" parent="87R97mBjq8Byll4jBRf2-33">
          <mxGeometry x="13.980000000000018" y="185" width="25" height="25" as="geometry" />
        </mxCell>
        <mxCell id="87R97mBjq8Byll4jBRf2-100" value="" style="ellipse;whiteSpace=wrap;html=1;aspect=fixed;fillColor=#fff2cc;strokeColor=#d6b656;" vertex="1" parent="87R97mBjq8Byll4jBRf2-33">
          <mxGeometry x="13.980000000000018" y="225" width="25" height="25" as="geometry" />
        </mxCell>
        <mxCell id="87R97mBjq8Byll4jBRf2-101" value="Online" style="text;html=1;align=left;verticalAlign=middle;whiteSpace=wrap;rounded=0;" vertex="1" parent="87R97mBjq8Byll4jBRf2-33">
          <mxGeometry x="45.57" y="145" width="60" height="25" as="geometry" />
        </mxCell>
        <mxCell id="87R97mBjq8Byll4jBRf2-102" value="Oflline&lt;span style=&quot;color: rgba(0, 0, 0, 0); font-family: monospace; font-size: 0px; text-wrap-mode: nowrap;&quot;&gt;%3CmxGraphModel%3E%3Croot%3E%3CmxCell%20id%3D%220%22%2F%3E%3CmxCell%20id%3D%221%22%20parent%3D%220%22%2F%3E%3CmxCell%20id%3D%222%22%20value%3D%22Online%22%20style%3D%22text%3Bhtml%3D1%3Balign%3Dleft%3BverticalAlign%3Dmiddle%3BwhiteSpace%3Dwrap%3Brounded%3D0%3B%22%20vertex%3D%221%22%20parent%3D%221%22%3E%3CmxGeometry%20x%3D%22605.57%22%20y%3D%22150%22%20width%3D%2260%22%20height%3D%2225%22%20as%3D%22geometry%22%2F%3E%3C%2FmxCell%3E%3C%2Froot%3E%3C%2FmxGraphModel%3E&lt;/span&gt;" style="text;html=1;align=left;verticalAlign=middle;whiteSpace=wrap;rounded=0;" vertex="1" parent="87R97mBjq8Byll4jBRf2-33">
          <mxGeometry x="45.57000000000005" y="185" width="60" height="25" as="geometry" />
        </mxCell>
        <mxCell id="87R97mBjq8Byll4jBRf2-103" value="In Planning" style="text;html=1;align=left;verticalAlign=middle;whiteSpace=wrap;rounded=0;" vertex="1" parent="87R97mBjq8Byll4jBRf2-33">
          <mxGeometry x="45.57" y="225" width="74.43" height="25" as="geometry" />
        </mxCell>
        <mxCell id="87R97mBjq8Byll4jBRf2-11" value="" style="shape=cube;whiteSpace=wrap;html=1;boundedLbl=1;backgroundOutline=1;darkOpacity=0.05;darkOpacity2=0.1;" vertex="1" parent="1">
          <mxGeometry x="720" y="580" width="190" height="80" as="geometry" />
        </mxCell>
        <mxCell id="87R97mBjq8Byll4jBRf2-4" value="" style="edgeStyle=orthogonalEdgeStyle;rounded=0;orthogonalLoop=1;jettySize=auto;html=1;" edge="1" parent="1" source="3SaCfD8Q3S_LtLH8qs-_-2">
          <mxGeometry relative="1" as="geometry">
            <mxPoint x="190" y="440" as="targetPoint" />
          </mxGeometry>
        </mxCell>
        <mxCell id="3SaCfD8Q3S_LtLH8qs-_-2" value="" style="fontColor=#0066CC;verticalAlign=top;verticalLabelPosition=bottom;labelPosition=center;align=center;html=1;outlineConnect=0;fillColor=#CCCCCC;strokeColor=#6881B3;gradientColor=none;gradientDirection=north;strokeWidth=2;shape=mxgraph.networks.switch;" vertex="1" parent="1">
          <mxGeometry x="300" y="425" width="100" height="30" as="geometry" />
        </mxCell>
        <mxCell id="3SaCfD8Q3S_LtLH8qs-_-3" value="&lt;div&gt;pve&lt;/div&gt;&lt;div&gt;192.168.178.58&lt;/div&gt;" style="fontColor=#0066CC;verticalAlign=top;verticalLabelPosition=bottom;labelPosition=center;align=center;html=1;outlineConnect=0;fillColor=#CCCCCC;strokeColor=#6881B3;gradientColor=none;gradientDirection=north;strokeWidth=2;shape=mxgraph.networks.virtual_server;fontFamily=Helvetica;fontSize=12;" vertex="1" parent="1">
          <mxGeometry x="440" y="200" width="100" height="110" as="geometry" />
        </mxCell>
        <mxCell id="3SaCfD8Q3S_LtLH8qs-_-8" style="edgeStyle=orthogonalEdgeStyle;rounded=0;orthogonalLoop=1;jettySize=auto;html=1;exitX=0;exitY=0.5;exitDx=0;exitDy=0;exitPerimeter=0;" edge="1" parent="1" source="87R97mBjq8Byll4jBRf2-7" target="3SaCfD8Q3S_LtLH8qs-_-2">
          <mxGeometry relative="1" as="geometry">
            <mxPoint x="440" y="642.5" as="sourcePoint" />
          </mxGeometry>
        </mxCell>
        <mxCell id="3SaCfD8Q3S_LtLH8qs-_-7" style="edgeStyle=orthogonalEdgeStyle;rounded=0;orthogonalLoop=1;jettySize=auto;html=1;entryX=0.5;entryY=0;entryDx=0;entryDy=0;entryPerimeter=0;" edge="1" parent="1" target="3SaCfD8Q3S_LtLH8qs-_-2">
          <mxGeometry relative="1" as="geometry">
            <mxPoint x="440" y="262.51724137931035" as="sourcePoint" />
          </mxGeometry>
        </mxCell>
        <mxCell id="87R97mBjq8Byll4jBRf2-5" value="TrueNAS&lt;div&gt;192.168.178.100&lt;/div&gt;" style="fontColor=#0066CC;verticalAlign=top;verticalLabelPosition=bottom;labelPosition=center;align=center;html=1;outlineConnect=0;fillColor=#CCCCCC;strokeColor=#6881B3;gradientColor=none;gradientDirection=north;strokeWidth=2;shape=mxgraph.networks.nas_filer;" vertex="1" parent="1">
          <mxGeometry x="580" y="730" width="100" height="35" as="geometry" />
        </mxCell>
        <mxCell id="87R97mBjq8Byll4jBRf2-8" style="edgeStyle=orthogonalEdgeStyle;rounded=0;orthogonalLoop=1;jettySize=auto;html=1;dashed=1;" edge="1" parent="1" source="87R97mBjq8Byll4jBRf2-7" target="87R97mBjq8Byll4jBRf2-5">
          <mxGeometry relative="1" as="geometry">
            <Array as="points">
              <mxPoint x="630" y="670" />
            </Array>
          </mxGeometry>
        </mxCell>
        <mxCell id="87R97mBjq8Byll4jBRf2-7" value="proxmox&lt;div&gt;192.168.178.200&lt;/div&gt;" style="fontColor=#0066CC;verticalAlign=top;verticalLabelPosition=bottom;labelPosition=center;align=center;html=1;outlineConnect=0;fillColor=#CCCCCC;strokeColor=#6881B3;gradientColor=none;gradientDirection=north;strokeWidth=2;shape=mxgraph.networks.server;" vertex="1" parent="1">
          <mxGeometry x="440" y="590" width="90" height="100" as="geometry" />
        </mxCell>
        <mxCell id="87R97mBjq8Byll4jBRf2-12" value="pihole&lt;div&gt;192.168.178.101&lt;/div&gt;" style="text;html=1;align=center;verticalAlign=middle;whiteSpace=wrap;rounded=0;" vertex="1" parent="1">
          <mxGeometry x="800" y="600" width="110" height="60" as="geometry" />
        </mxCell>
        <mxCell id="87R97mBjq8Byll4jBRf2-16" value="" style="shape=image;verticalLabelPosition=bottom;labelBackgroundColor=default;verticalAlign=top;aspect=fixed;imageAspect=0;image=https://wp-cdn.pi-hole.net/wp-content/uploads/2016/12/Vortex-R.png;" vertex="1" parent="1">
          <mxGeometry x="750" y="610" width="40" height="40" as="geometry" />
        </mxCell>
        <mxCell id="87R97mBjq8Byll4jBRf2-17" value="" style="shape=cube;whiteSpace=wrap;html=1;boundedLbl=1;backgroundOutline=1;darkOpacity=0.05;darkOpacity2=0.1;" vertex="1" parent="1">
          <mxGeometry x="720" y="670" width="190" height="80" as="geometry" />
        </mxCell>
        <mxCell id="87R97mBjq8Byll4jBRf2-18" value="HomeAssistant&lt;div&gt;192.168.178.102&lt;/div&gt;" style="text;html=1;align=center;verticalAlign=middle;whiteSpace=wrap;rounded=0;" vertex="1" parent="1">
          <mxGeometry x="800" y="690" width="110" height="60" as="geometry" />
        </mxCell>
        <mxCell id="87R97mBjq8Byll4jBRf2-20" value="" style="shape=image;verticalLabelPosition=bottom;labelBackgroundColor=default;verticalAlign=top;aspect=fixed;imageAspect=0;editableCssRules=.*;image=data:image/svg+xml,PHN2ZyB4bWxucz0iaHR0cDovL3d3dy53My5vcmcvMjAwMC9zdmciIGZpbGw9Im5vbmUiIHZpZXdCb3g9IjAgNiAyNDAgMjMzLjc3MjAwMzE3MzgyODEyIiBoZWlnaHQ9IjIzMy43NzIwMDMxNzM4MjgxMiIgd2lkdGg9IjI0MCI+JiN4YTs8cGF0aCBmaWxsPSIjRjJGNEY5IiBkPSJNMjQwIDIyNC43NjJDMjQwIDIzMy4wMTIgMjMzLjI1IDIzOS43NjIgMjI1IDIzOS43NjJIMTVDNi43NSAyMzkuNzYyIDAgMjMzLjAxMiAwIDIyNC43NjJWMTM0Ljc2MkMwIDEyNi41MTIgNC43NyAxMTQuOTkzIDEwLjYxIDEwOS4xNTNMMTA5LjM5IDEwLjM3MjVDMTE1LjIyIDQuNTQyNSAxMjQuNzcgNC41NDI1IDEzMC42IDEwLjM3MjVMMjI5LjM5IDEwOS4xNjJDMjM1LjIyIDExNC45OTIgMjQwIDEyNi41MjIgMjQwIDEzNC43NzJWMjI0Ljc3MlYyMjQuNzYyWiIvPiYjeGE7PHBhdGggZmlsbD0iIzE4QkNGMiIgZD0iTTIyOS4zOSAxMDkuMTUzTDEzMC42MSAxMC4zNzI1QzEyNC43OCA0LjU0MjUgMTE1LjIzIDQuNTQyNSAxMDkuNCAxMC4zNzI1TDEwLjYxIDEwOS4xNTNDNC43OCAxMTQuOTgzIDAgMTI2LjUxMiAwIDEzNC43NjJWMjI0Ljc2MkMwIDIzMy4wMTIgNi43NSAyMzkuNzYyIDE1IDIzOS43NjJIMTA3LjI3TDY2LjY0IDE5OS4xMzJDNjQuNTUgMTk5Ljg1MiA2Mi4zMiAyMDAuMjYyIDYwIDIwMC4yNjJDNDguNyAyMDAuMjYyIDM5LjUgMTkxLjA2MiAzOS41IDE3OS43NjJDMzkuNSAxNjguNDYyIDQ4LjcgMTU5LjI2MiA2MCAxNTkuMjYyQzcxLjMgMTU5LjI2MiA4MC41IDE2OC40NjIgODAuNSAxNzkuNzYyQzgwLjUgMTgyLjA5MiA4MC4wOSAxODQuMzIyIDc5LjM3IDE4Ni40MTJMMTExIDIxOC4wNDJWMTAyLjE2MkMxMDQuMiA5OC44MjI1IDk5LjUgOTEuODQyNSA5OS41IDgzLjc3MjVDOTkuNSA3Mi40NzI1IDEwOC43IDYzLjI3MjUgMTIwIDYzLjI3MjVDMTMxLjMgNjMuMjcyNSAxNDAuNSA3Mi40NzI1IDE0MC41IDgzLjc3MjVDMTQwLjUgOTEuODQyNSAxMzUuOCA5OC44MjI1IDEyOSAxMDIuMTYyVjE4My40MzJMMTYwLjQ2IDE1MS45NzJDMTU5Ljg0IDE1MC4wMTIgMTU5LjUgMTQ3LjkzMiAxNTkuNSAxNDUuNzcyQzE1OS41IDEzNC40NzIgMTY4LjcgMTI1LjI3MiAxODAgMTI1LjI3MkMxOTEuMyAxMjUuMjcyIDIwMC41IDEzNC40NzIgMjAwLjUgMTQ1Ljc3MkMyMDAuNSAxNTcuMDcyIDE5MS4zIDE2Ni4yNzIgMTgwIDE2Ni4yNzJDMTc3LjUgMTY2LjI3MiAxNzUuMTIgMTY1LjgwMiAxNzIuOTEgMTY0Ljk4MkwxMjkgMjA4Ljg5MlYyMzkuNzcySDIyNUMyMzMuMjUgMjM5Ljc3MiAyNDAgMjMzLjAyMiAyNDAgMjI0Ljc3MlYxMzQuNzcyQzI0MCAxMjYuNTIyIDIzNS4yMyAxMTUuMDAyIDIyOS4zOSAxMDkuMTYyVjEwOS4xNTNaIi8+JiN4YTs8L3N2Zz4=;" vertex="1" parent="1">
          <mxGeometry x="750" y="700" width="41.03" height="40" as="geometry" />
        </mxCell>
        <mxCell id="87R97mBjq8Byll4jBRf2-21" style="edgeStyle=orthogonalEdgeStyle;rounded=0;orthogonalLoop=1;jettySize=auto;html=1;entryX=-0.016;entryY=0.463;entryDx=0;entryDy=0;entryPerimeter=0;dashed=1;" edge="1" parent="1" source="87R97mBjq8Byll4jBRf2-7" target="87R97mBjq8Byll4jBRf2-11">
          <mxGeometry relative="1" as="geometry">
            <Array as="points">
              <mxPoint x="580" y="617" />
              <mxPoint x="580" y="617" />
            </Array>
          </mxGeometry>
        </mxCell>
        <mxCell id="87R97mBjq8Byll4jBRf2-22" style="edgeStyle=orthogonalEdgeStyle;rounded=0;orthogonalLoop=1;jettySize=auto;html=1;entryX=0;entryY=0;entryDx=0;entryDy=30;entryPerimeter=0;dashed=1;" edge="1" parent="1" source="87R97mBjq8Byll4jBRf2-7" target="87R97mBjq8Byll4jBRf2-17">
          <mxGeometry relative="1" as="geometry">
            <Array as="points">
              <mxPoint x="660" y="640" />
              <mxPoint x="660" y="700" />
            </Array>
          </mxGeometry>
        </mxCell>
        <mxCell id="87R97mBjq8Byll4jBRf2-23" value="" style="rounded=1;whiteSpace=wrap;html=1;fillColor=none;" vertex="1" parent="1">
          <mxGeometry x="430" y="560" width="490" height="250" as="geometry" />
        </mxCell>
        <mxCell id="87R97mBjq8Byll4jBRf2-50" style="edgeStyle=orthogonalEdgeStyle;rounded=0;orthogonalLoop=1;jettySize=auto;html=1;" edge="1" parent="1" source="87R97mBjq8Byll4jBRf2-24" target="3SaCfD8Q3S_LtLH8qs-_-3">
          <mxGeometry relative="1" as="geometry" />
        </mxCell>
        <mxCell id="87R97mBjq8Byll4jBRf2-54" value="" style="edgeStyle=orthogonalEdgeStyle;rounded=0;orthogonalLoop=1;jettySize=auto;html=1;startArrow=classic;startFill=1;" edge="1" parent="1" source="87R97mBjq8Byll4jBRf2-51" target="87R97mBjq8Byll4jBRf2-53">
          <mxGeometry relative="1" as="geometry" />
        </mxCell>
        <mxCell id="87R97mBjq8Byll4jBRf2-51" value="" style="shape=image;verticalLabelPosition=bottom;labelBackgroundColor=default;verticalAlign=top;aspect=fixed;imageAspect=0;image=https://cf-assets.www.cloudflare.com/slt3lc6tev37/fdh7MDcUlyADCr49kuUs2/5f780ced9677a05d52b05605be88bc6f/cf-logo-v-rgb.png;" vertex="1" parent="1">
          <mxGeometry x="90" y="25" width="180" height="60" as="geometry" />
        </mxCell>
        <mxCell id="87R97mBjq8Byll4jBRf2-52" style="edgeStyle=orthogonalEdgeStyle;rounded=0;orthogonalLoop=1;jettySize=auto;html=1;entryX=0;entryY=0;entryDx=0;entryDy=30.816326530612244;entryPerimeter=0;" edge="1" parent="1" source="87R97mBjq8Byll4jBRf2-51" target="87R97mBjq8Byll4jBRf2-47">
          <mxGeometry relative="1" as="geometry" />
        </mxCell>
        <mxCell id="87R97mBjq8Byll4jBRf2-53" value="gnatzig.eu" style="ellipse;shape=cloud;whiteSpace=wrap;html=1;" vertex="1" parent="1">
          <mxGeometry x="120" y="-140" width="120" height="80" as="geometry" />
        </mxCell>
        <mxCell id="87R97mBjq8Byll4jBRf2-117" style="edgeStyle=orthogonalEdgeStyle;rounded=0;orthogonalLoop=1;jettySize=auto;html=1;" edge="1" parent="1" source="87R97mBjq8Byll4jBRf2-110" target="87R97mBjq8Byll4jBRf2-116">
          <mxGeometry relative="1" as="geometry">
            <Array as="points">
              <mxPoint x="77" y="530" />
              <mxPoint x="77" y="530" />
            </Array>
          </mxGeometry>
        </mxCell>
        <mxCell id="87R97mBjq8Byll4jBRf2-110" value="" style="shape=image;html=1;verticalAlign=top;verticalLabelPosition=bottom;labelBackgroundColor=#ffffff;imageAspect=0;aspect=fixed;image=https://cdn4.iconfinder.com/data/icons/essential-3/32/372-Home-128.png" vertex="1" parent="1">
          <mxGeometry x="50" y="376" width="128" height="128" as="geometry" />
        </mxCell>
        <mxCell id="87R97mBjq8Byll4jBRf2-111" value="" style="points=[[0.005,0.09,0],[0.08,0,0],[0.76,0.25,0],[1,0.92,0],[0.91,0.995,0],[0.57,0.995,0],[0.045,0.955,0],[0.005,0.43,0]];verticalLabelPosition=bottom;sketch=0;html=1;verticalAlign=top;aspect=fixed;align=center;pointerEvents=1;shape=mxgraph.cisco19.3g_4g_indicator;fillColor=#000000;strokeColor=none;" vertex="1" parent="1">
          <mxGeometry x="89" y="425" width="50" height="50" as="geometry" />
        </mxCell>
        <mxCell id="87R97mBjq8Byll4jBRf2-112" value="fritzbox mesh" style="text;html=1;align=center;verticalAlign=middle;whiteSpace=wrap;rounded=0;" vertex="1" parent="1">
          <mxGeometry x="69" y="350" width="90" height="30" as="geometry" />
        </mxCell>
        <mxCell id="87R97mBjq8Byll4jBRf2-113" value="" style="fontColor=#0066CC;verticalAlign=top;verticalLabelPosition=bottom;labelPosition=center;align=center;html=1;outlineConnect=0;fillColor=#CCCCCC;strokeColor=#6881B3;gradientColor=none;gradientDirection=north;strokeWidth=2;shape=mxgraph.networks.desktop_pc;" vertex="1" parent="1">
          <mxGeometry x="190" y="605" width="62" height="100" as="geometry" />
        </mxCell>
        <mxCell id="87R97mBjq8Byll4jBRf2-116" value="" style="fontColor=#0066CC;verticalAlign=top;verticalLabelPosition=bottom;labelPosition=center;align=center;html=1;outlineConnect=0;fillColor=#CCCCCC;strokeColor=#6881B3;gradientColor=none;gradientDirection=north;strokeWidth=2;shape=mxgraph.networks.laptop;" vertex="1" parent="1">
          <mxGeometry x="14" y="610" width="125" height="95" as="geometry" />
        </mxCell>
        <mxCell id="87R97mBjq8Byll4jBRf2-118" style="edgeStyle=orthogonalEdgeStyle;rounded=0;orthogonalLoop=1;jettySize=auto;html=1;entryX=0.5;entryY=0;entryDx=0;entryDy=0;entryPerimeter=0;curved=0;strokeColor=default;" edge="1" parent="1" source="87R97mBjq8Byll4jBRf2-110" target="87R97mBjq8Byll4jBRf2-113">
          <mxGeometry relative="1" as="geometry">
            <Array as="points">
              <mxPoint x="150" y="560" />
              <mxPoint x="221" y="560" />
            </Array>
          </mxGeometry>
        </mxCell>
      </root>
    </mxGraphModel>
  </diagram>
</mxfile>
